<svg width="1150" height="400" viewBox="0 0 1150 400" fill="none" xmlns="http://www.w3.org/2000/svg">
<path d="M397.48 257.76C406.44 257.76 412.87 252.72 412.87 244.4C412.87 237.05 408.74 232.99 401.33 230.13L394.75 227.61C389.71 225.65 387.33 223.62 387.33 219.07C387.33 214.52 391.6 211.44 396.99 211.44C401.54 211.44 404.55 213.47 407.14 216.55L411.27 213.19C408.61 209.41 403.5 206.4 397.21 206.4C388.6 206.4 382.03 211.37 382.03 219.13C382.03 225.92 385.32 229.76 393.02 232.7L400.36 235.5C404.91 237.25 407.57 240.19 407.57 244.53C407.57 249.64 403.09 252.72 397.57 252.72C391.55 252.72 387.56 250.06 384.77 245.65L380.36 248.8C382.58 253.77 389.22 257.76 397.48 257.76ZM347.91 257.76C359.25 257.76 367.08 250.06 367.08 237.68V207.24H361.76V237.82C361.76 247.41 356.23 252.73 347.91 252.73C339.58 252.73 334.05 247.41 334.05 237.82V207.24H328.73V237.68C328.73 250.07 336.57 257.76 347.91 257.76ZM282.8 228.93V212.21H293.09C299.39 212.21 303.02 215.08 303.02 220.61C303.02 226.14 299.38 228.94 293.09 228.94H282.8V228.93ZM277.48 256.92H282.8V233.83H288.47L308.13 256.92H315.06L295.47 233.9C303.52 233.27 308.41 228.16 308.41 220.61C308.41 212.49 302.81 207.25 293.72 207.25H277.48V256.92ZM247.88 256.92H253.2V207.24H247.88V256.92ZM204.08 256.92H208.42L229.76 207.24H223.88L206.25 248.24L188.62 207.24H182.67L204.08 256.92Z" fill="#2B2B2A"/>
<path d="M398.03 200.51C406.99 200.51 413.42 195.47 413.42 187.15C413.42 179.8 409.29 175.74 401.87 172.88L395.29 170.36C390.25 168.4 387.87 166.37 387.87 161.82C387.87 157.27 392.14 154.19 397.53 154.19C402.08 154.19 405.09 156.22 407.68 159.3L411.81 155.94C409.15 152.16 404.04 149.15 397.74 149.15C389.13 149.15 382.56 154.12 382.56 161.88C382.56 168.67 385.85 172.51 393.54 175.45L400.89 178.25C405.44 180 408.1 182.94 408.1 187.28C408.1 192.39 403.62 195.47 398.1 195.47C392.08 195.47 388.09 192.81 385.29 188.4L380.88 191.55C383.13 196.52 389.78 200.51 398.03 200.51ZM346.18 199.67H350.52L371.86 149.99H365.98L348.35 190.99L330.72 149.99H324.77L346.18 199.67Z" stroke="#2B2B2A" stroke-width="2" stroke-miterlimit="1.788"/>
<path d="M287.83 169.73V160.21H294.97C298.26 160.21 300.64 161.96 300.64 164.97C300.64 167.84 298.26 169.73 294.97 169.73H287.83V169.73ZM276.71 199.67H287.83V179.17H289.65L306.16 199.67H319.52L301.96 177.77C308.26 175.53 311.68 171.4 311.68 164.97C311.68 156.71 305.66 150 296.29 150H276.7V199.67H276.71ZM248.79 199.67H259.92V149.99H248.79V199.67ZM181.4 199.67H191.4L201.34 166.92L211.2 199.67H221.28L236.74 149.99H224.85L215.82 181.69L206.16 149.99H196.38L186.72 181.55L177.69 149.99H165.94L181.4 199.67Z" fill="#2B2B2A"/>
<path d="M527.59 71.5702C530.4 71.6502 533.06 72.8302 535.02 74.8402C598.16 137.98 598.16 240.69 535.02 303.83C471.88 366.97 369.17 366.97 306.03 303.83C301.74 299.67 301.64 292.83 305.8 288.55C309.96 284.26 316.8 284.16 321.08 288.32C321.16 288.4 321.23 288.47 321.31 288.55C376.19 343.43 464.85 343.43 519.74 288.55C574.62 233.67 574.62 145.01 519.74 90.1202C515.46 85.9602 515.36 79.1202 519.52 74.8402C521.63 72.6702 524.56 71.4802 527.59 71.5702Z" fill="black"/>
<path d="M420.53 49.01C470.59 49.01 517 75.76 542 119.17C567.08 162.57 567.08 216.1 542 259.5C517 302.91 470.59 329.66 420.53 329.66C414.56 329.75 409.65 324.99 409.56 319.02C409.47 313.05 414.23 308.14 420.2 308.05C420.31 308.05 420.42 308.05 420.54 308.05C462.92 308.05 502.15 285.43 523.29 248.7V248.69L523.3 248.68C544.53 211.94 544.53 166.71 523.3 129.98L523.29 129.97V129.96C502.15 93.24 462.92 70.61 420.54 70.61C414.57 70.7 409.66 65.94 409.57 59.97C409.48 54 414.24 49.09 420.21 49C420.3 49.01 420.41 49.01 420.53 49.01Z" fill="#DE0000"/>
<path d="M420.53 70.7197C450.94 70.7197 481.36 82.2997 504.51 105.45C550.74 151.68 550.73 227.02 504.52 273.32C500.35 277.59 493.5 277.66 489.24 273.48C484.97 269.31 484.9 262.46 489.08 258.2C489.13 258.15 489.18 258.1 489.23 258.05C527.2 220.01 527.2 158.69 489.24 120.73C451.19 82.6797 389.9 82.6797 351.85 120.73C347.69 125.01 340.85 125.11 336.57 120.96C332.29 116.81 332.19 109.96 336.34 105.68C336.42 105.6 336.49 105.53 336.57 105.45C359.7 82.2897 390.11 70.7197 420.53 70.7197Z" fill="#FFCF00"/>
<path fill-rule="evenodd" clip-rule="evenodd" d="M632 83C633.657 83 635 84.3431 635 86L635 317C635 318.657 633.657 320 632 320C630.343 320 629 318.657 629 317L629 86C629 84.3431 630.343 83 632 83Z" fill="#2B2B2A"/>
<path d="M679.165 223H688.651V205.307H698.673C710.767 205.307 717.261 198.045 717.261 187.972C717.261 177.974 710.844 170.636 698.801 170.636H679.165V223ZM688.651 197.508V178.562H697.344C704.452 178.562 707.597 182.398 707.597 187.972C707.597 193.545 704.452 197.508 697.395 197.508H688.651Z" fill="#2B2B2A"/>
<path d="M732.701 223H742.187V203.824H751.851L762.13 223H772.715L761.388 202.239C767.55 199.758 770.797 194.491 770.797 187.383C770.797 177.386 764.354 170.636 752.337 170.636H732.701V223ZM742.187 195.949V178.562H750.88C757.962 178.562 761.133 181.81 761.133 187.383C761.133 192.957 757.962 195.949 750.931 195.949H742.187Z" fill="#2B2B2A"/>
<path d="M833.519 196.818C833.519 179.892 823.189 169.92 809.459 169.92C795.703 169.92 785.399 179.892 785.399 196.818C785.399 213.719 795.703 223.716 809.459 223.716C823.189 223.716 833.519 213.744 833.519 196.818ZM823.982 196.818C823.982 208.733 817.999 215.202 809.459 215.202C800.945 215.202 794.936 208.733 794.936 196.818C794.936 184.903 800.945 178.435 809.459 178.435C817.999 178.435 823.982 184.903 823.982 196.818Z" fill="#2B2B2A"/>
<path d="M870.346 170.636V207.455C870.32 212.977 867.763 215.918 863.212 215.918C858.968 215.918 856.13 213.335 856.053 209.091H846.618C846.618 218.756 853.675 223.716 862.854 223.716C872.954 223.716 879.729 217.58 879.755 207.455V170.636H870.346Z" fill="#2B2B2A"/>
<path d="M897.246 223H931.507V215.048H906.732V200.756H929.539V192.804H906.732V178.588H931.303V170.636H897.246V223Z" fill="#2B2B2A"/>
<path d="M948.18 223H957.666V207.403L963.47 200.551L979.092 223H990.496L970.067 194.133L990.317 170.636H978.734L958.305 194.696H957.666V170.636H948.18V223Z" fill="#2B2B2A"/>
<path d="M1001.81 178.588H1017.99V223H1027.4V178.588H1043.58V170.636H1001.81V178.588Z" fill="#2B2B2A"/>
<path d="M124.34 196.67H137.44L133.48 209.15H120.38L124.34 196.67ZM142.96 179L138.73 192.37H125.64L129.8 179H125.23L121.07 192.37H110.97V196.67H119.7L115.75 209.15H106V213.45H114.46L110.08 227.43H114.72L119.01 213.45H132.18L127.82 227.43H132.39L136.69 213.45H146.92V209.15H138.05L142.01 196.67H151.83V192.37H143.31L147.47 179H142.96Z" fill="#2B2B2A"/>
</svg>
